<svg width="33" height="33" viewBox="0 0 33 33" fill="none" xmlns="http://www.w3.org/2000/svg">
<circle cx="16.5" cy="16.5" r="16.5" fill="#57A574"/>
<path d="M17.4648 9.01562C17.4648 9.32812 17.3945 9.5625 17.2539 9.71875C17.1211 9.86719 16.9492 9.97266 16.7383 10.0352C16.5273 10.0977 16.2969 10.1367 16.0469 10.1523C15.8047 10.1602 15.5742 10.1797 15.3555 10.2109L14.7227 10.2812C14.9023 11.6641 15.0117 13.0469 15.0508 14.4297C15.0977 15.8047 15.1211 17.1953 15.1211 18.6016C15.1211 19.0391 15.1094 19.5039 15.0859 19.9961C15.0625 20.4805 15.0078 20.9648 14.9219 21.4492C14.8359 21.9258 14.7109 22.3828 14.5469 22.8203C14.3828 23.2578 14.1602 23.6445 13.8789 23.9805C13.5977 24.3086 13.25 24.5742 12.8359 24.7773C12.4219 24.9727 11.9258 25.0703 11.3477 25.0703C10.6836 25.0703 10.0898 24.9297 9.56641 24.6484C9.05078 24.3594 8.61328 23.9844 8.25391 23.5234C7.89453 23.0625 7.62109 22.5391 7.43359 21.9531C7.24609 21.3594 7.15234 20.7578 7.15234 20.1484C7.15234 20.0234 7.15625 19.8203 7.16406 19.5391C7.17969 19.2578 7.21094 18.9727 7.25781 18.6836C7.3125 18.3867 7.39062 18.1289 7.49219 17.9102C7.60156 17.6836 7.74609 17.5703 7.92578 17.5703C8.02734 17.5703 8.15234 17.5977 8.30078 17.6523C8.45703 17.6992 8.60156 17.7656 8.73438 17.8516C8.875 17.9375 8.99219 18.0391 9.08594 18.1562C9.1875 18.2656 9.23828 18.3828 9.23828 18.5078C9.23828 18.8047 9.20312 19.0938 9.13281 19.375C9.0625 19.6562 9.02734 19.9453 9.02734 20.2422C9.02734 20.5625 9.07422 20.918 9.16797 21.3086C9.26172 21.6992 9.40234 22.0703 9.58984 22.4219C9.77734 22.7656 10.0117 23.0547 10.293 23.2891C10.582 23.5234 10.918 23.6406 11.3008 23.6406C11.582 23.6406 11.8203 23.5898 12.0156 23.4883C12.2188 23.3789 12.3867 23.2383 12.5195 23.0664C12.6602 22.8867 12.7695 22.6836 12.8477 22.457C12.9336 22.2305 13.0039 22 13.0586 21.7656C13.2383 20.9766 13.3398 20.1797 13.3633 19.375C13.3945 18.5625 13.4102 17.7422 13.4102 16.9141C13.4102 15.8438 13.3828 14.7734 13.3281 13.7031C13.2812 12.6328 13.1914 11.5625 13.0586 10.4922C12.5273 10.5547 12.0039 10.6211 11.4883 10.6914C10.9727 10.7617 10.4492 10.7969 9.91797 10.7969C9.78516 10.7969 9.67969 10.7695 9.60156 10.7148C9.53125 10.6602 9.49609 10.5625 9.49609 10.4219C9.49609 10.1484 9.57812 9.94141 9.74219 9.80078C9.90625 9.65234 10.1133 9.54688 10.3633 9.48438C10.7773 9.36719 11.1992 9.28516 11.6289 9.23828C12.0664 9.18359 12.4961 9.125 12.918 9.0625V8.875C12.918 8.74219 12.9648 8.66016 13.0586 8.62891C13.1523 8.58984 13.2539 8.57031 13.3633 8.57031C13.5273 8.57031 13.6875 8.59375 13.8438 8.64062C14 8.6875 14.1445 8.76562 14.2773 8.875C14.7148 8.80469 15.1484 8.72266 15.5781 8.62891C16.0156 8.52734 16.4648 8.47656 16.9258 8.47656C17.0898 8.47656 17.2188 8.52734 17.3125 8.62891C17.4141 8.72266 17.4648 8.85156 17.4648 9.01562ZM26.6289 21.5312C26.6289 21.6484 26.6094 21.7656 26.5703 21.8828C26.5391 21.9922 26.5039 22.1016 26.4648 22.2109C26.293 22.6562 26.082 23.0703 25.832 23.4531C25.582 23.8281 25.293 24.1523 24.9648 24.4258C24.6367 24.6992 24.2656 24.9141 23.8516 25.0703C23.4375 25.2266 22.9805 25.3047 22.4805 25.3047C21.8164 25.3047 21.2461 25.1641 20.7695 24.8828C20.293 24.6016 19.8867 24.2383 19.5508 23.793C19.2148 23.3398 18.9375 22.8359 18.7188 22.2812C18.5078 21.7266 18.3398 21.1719 18.2148 20.6172C18.0273 19.8125 17.8828 19.0078 17.7812 18.2031C17.6797 17.3906 17.6289 16.5781 17.6289 15.7656C17.6289 15.2891 17.6484 14.7969 17.6875 14.2891C17.7344 13.7812 17.8125 13.2812 17.9219 12.7891C18.0312 12.2891 18.1797 11.8086 18.3672 11.3477C18.5547 10.8789 18.7891 10.4492 19.0703 10.0586C19.3516 9.66016 19.6836 9.30859 20.0664 9.00391C20.457 8.69922 20.9102 8.46094 21.4258 8.28906C21.6133 8.21875 21.8086 8.17188 22.0117 8.14844C22.2148 8.11719 22.418 8.10156 22.6211 8.10156C23.0273 8.10156 23.4141 8.16797 23.7812 8.30078C24.1484 8.43359 24.4688 8.62109 24.7422 8.86328C25.0234 9.10547 25.2422 9.39844 25.3984 9.74219C25.5625 10.0859 25.6445 10.4688 25.6445 10.8906C25.6445 11.0312 25.6133 11.1367 25.5508 11.207C25.4883 11.2773 25.3789 11.3125 25.2227 11.3125C24.9336 11.3125 24.707 11.2656 24.543 11.1719C24.3867 11.0781 24.2578 10.9609 24.1562 10.8203C24.0547 10.6797 23.9688 10.5273 23.8984 10.3633C23.8359 10.1992 23.7578 10.0469 23.6641 9.90625C23.5703 9.76562 23.4453 9.64844 23.2891 9.55469C23.1328 9.46094 22.918 9.41406 22.6445 9.41406C22.3711 9.41406 22.1133 9.46875 21.8711 9.57812C21.6367 9.67969 21.418 9.81641 21.2148 9.98828C21.0195 10.1602 20.8398 10.3555 20.6758 10.5742C20.5195 10.7852 20.3789 11 20.2539 11.2188C19.9258 11.8281 19.6953 12.4805 19.5625 13.1758C19.4297 13.8633 19.3633 14.5547 19.3633 15.25C19.3633 15.4844 19.3711 15.7891 19.3867 16.1641C19.4102 16.5312 19.4414 16.9375 19.4805 17.3828C19.5273 17.8281 19.5898 18.3008 19.668 18.8008C19.7461 19.293 19.8398 19.7773 19.9492 20.2539C20.0664 20.7305 20.2031 21.1875 20.3594 21.625C20.5234 22.0625 20.707 22.4453 20.9102 22.7734C21.1211 23.1016 21.3555 23.3633 21.6133 23.5586C21.8789 23.7539 22.1758 23.8516 22.5039 23.8516C22.8398 23.8516 23.1367 23.7656 23.3945 23.5938C23.6523 23.4141 23.8711 23.1914 24.0508 22.9258C24.2383 22.6523 24.3906 22.3594 24.5078 22.0469C24.6328 21.7266 24.7305 21.4297 24.8008 21.1562C24.8242 21.0781 24.8438 21.0078 24.8594 20.9453C24.8828 20.8828 24.9102 20.8281 24.9414 20.7812C24.9805 20.7344 25.0273 20.6992 25.082 20.6758C25.1367 20.6523 25.2148 20.6406 25.3164 20.6406C25.4258 20.6406 25.5547 20.6641 25.7031 20.7109C25.8594 20.75 26.0039 20.8086 26.1367 20.8867C26.2773 20.9648 26.3945 21.0586 26.4883 21.168C26.582 21.2773 26.6289 21.3984 26.6289 21.5312Z" fill="white"/>
</svg>
